<?xml version="1.0" standalone="no"?>
<!DOCTYPE svg PUBLIC "-//W3C//DTD SVG 20010904//EN"
 "http://www.w3.org/TR/2001/REC-SVG-20010904/DTD/svg10.dtd">
<svg version="1.0" xmlns="http://www.w3.org/2000/svg"
 width="512.000000pt" height="512.000000pt" viewBox="0 0 512.000000 512.000000"
 preserveAspectRatio="xMidYMid meet">
<metadata>
Created by potrace 1.11, written by Peter Selinger 2001-2013
</metadata>
<g transform="translate(0.000000,512.000000) scale(0.100000,-0.100000)"
fill="#000000" stroke="none">
<path d="M0 2560 l0 -2560 2560 0 2560 0 0 2560 0 2560 -2560 0 -2560 0 0
-2560z m2175 1665 c72 -8 185 -25 253 -37 l122 -21 0 -36 c0 -20 5 -132 11
-249 5 -117 7 -216 4 -221 -3 -6 -30 -1 -63 10 -252 88 -595 122 -797 80 -123
-26 -193 -54 -281 -113 -171 -114 -267 -297 -280 -533 -16 -273 99 -456 333
-531 75 -24 260 -29 378 -10 54 9 100 18 101 19 1 1 5 70 9 154 l7 152 -134 3
-133 3 4 193 c2 106 7 207 10 225 l7 32 452 2 c248 1 454 -1 456 -5 2 -4 -2
-81 -9 -172 -7 -91 -21 -318 -30 -505 -8 -187 -18 -377 -21 -422 l-6 -81 -86
-16 c-364 -66 -887 -85 -1142 -41 -191 32 -368 92 -478 161 -386 243 -517 853
-287 1329 157 323 464 548 845 619 203 38 489 42 755 11z m2040 -1310 c150
-32 292 -132 362 -256 58 -100 78 -188 78 -334 0 -148 -19 -225 -83 -350 -55
-106 -173 -221 -282 -273 -130 -63 -237 -86 -405 -86 -77 -1 -156 2 -175 6
l-35 8 -50 202 c-27 112 -50 207 -50 213 0 5 51 9 126 10 119 0 128 1 184 30
46 23 66 42 90 79 27 44 30 58 30 127 0 89 -15 119 -81 156 -36 21 -52 23
-189 23 -82 0 -159 -3 -171 -6 -19 -5 -22 -15 -27 -127 -16 -292 -29 -701 -35
-1082 l-7 -410 -317 -3 -318 -2 0 47 c0 27 5 99 10 161 27 302 68 1255 73
1691 l2 184 409 3 c224 2 411 6 415 10 11 12 373 -5 446 -21z"/>
</g>
</svg>
